<?xml version="1.0" encoding="UTF-8"?>
<svg xmlns="http://www.w3.org/2000/svg" xmlns:xlink="http://www.w3.org/1999/xlink" width="50px" height="50px" viewBox="0 0 50 50" version="1.1">
<g id="surface1">
<path style=" stroke:none;fill-rule:nonzero;fill:rgb(34.509804%,18.823529%,3.921569%);fill-opacity:1;" d="M 24.144531 49.671875 C 24.101562 49.628906 22.941406 49.527344 21.570312 49.429688 C 18 49.199219 17.484375 49.058594 14.730469 47.671875 C 13.429688 47.027344 11.957031 46.3125 11.457031 46.085938 C 10.1875 45.515625 8.214844 43.957031 6.144531 41.871094 C 4.613281 40.328125 4.257812 39.886719 3.671875 38.769531 C 3.300781 38.058594 2.769531 36.828125 2.484375 36.058594 C 1.355469 32.941406 0.144531 27.386719 0.144531 25.3125 C 0.144531 24.515625 1 20.898438 2.355469 16.070312 C 3.015625 13.699219 3.257812 13.058594 3.785156 12.214844 C 4.699219 10.769531 6.886719 8 8.257812 6.542969 C 9.257812 5.5 9.714844 5.144531 10.984375 4.441406 C 13.171875 3.242188 14.101562 2.871094 18.1875 1.5 C 22.328125 0.101562 23.1875 -0.0429688 24.714844 0.355469 C 25.414062 0.542969 26.355469 0.613281 28.5 0.644531 C 32.558594 0.699219 33.585938 1.015625 37.570312 3.34375 C 38.558594 3.929688 40.085938 4.800781 40.984375 5.300781 C 44.699219 7.386719 46.585938 10.101562 48.8125 16.65625 L 49.785156 19.5 L 49.785156 24.929688 C 49.769531 29.355469 49.730469 30.628906 49.527344 31.785156 C 49.085938 34.398438 48.199219 36.929688 46.855469 39.34375 C 46.214844 40.5 45.84375 40.972656 44.730469 42.027344 C 41.785156 44.8125 39.144531 46.671875 37 47.472656 C 33.1875 48.898438 31.714844 49.257812 29.058594 49.441406 C 25.1875 49.699219 24.214844 49.742188 24.144531 49.671875 Z M 28.714844 48 C 30.730469 47.871094 32.1875 47.558594 34.570312 46.699219 C 35.472656 46.386719 36.414062 46.058594 36.671875 45.984375 C 37.214844 45.8125 37.371094 45.558594 38.6875 42.699219 C 41.855469 35.742188 44 27.769531 44.058594 22.644531 C 44.085938 19.800781 43.3125 17.8125 41.941406 17.171875 C 41.199219 16.8125 41.015625 16.800781 39.757812 16.941406 L 38.871094 17.042969 L 38.65625 16.269531 C 38.34375 15.214844 37.113281 12.8125 36.484375 12.042969 C 35.371094 10.6875 34.328125 10.34375 32.230469 10.644531 C 31.515625 10.742188 30.742188 10.898438 30.527344 10.984375 C 29.871094 11.242188 29.441406 11.171875 28.171875 10.628906 C 26.871094 10.070312 24.5 9.429688 23.742188 9.429688 C 22.785156 9.429688 21.472656 10.257812 19.628906 12.042969 C 17.757812 13.84375 17.429688 14 16.644531 13.484375 C 16.1875 13.1875 15.601562 13.300781 14.457031 13.871094 C 13.414062 14.386719 12.871094 14.972656 12.199219 16.300781 C 11.6875 17.34375 10.515625 20.1875 9.898438 21.929688 C 8.785156 25.085938 6.484375 31.914062 5.671875 34.484375 L 4.742188 37.472656 L 5.171875 38.269531 C 5.6875 39.199219 8.785156 42.34375 10.441406 43.613281 C 11.128906 44.128906 12.257812 44.769531 13.515625 45.34375 C 14.601562 45.84375 15.957031 46.515625 16.5 46.828125 C 17.101562 47.171875 17.929688 47.484375 18.570312 47.628906 C 20.015625 47.941406 24.371094 48.285156 25.785156 48.199219 C 26.414062 48.15625 27.730469 48.070312 28.714844 48 Z M 41.800781 42.472656 C 43.398438 41.144531 45.285156 39.257812 45.285156 39 C 45.285156 38.914062 45.441406 38.601562 45.644531 38.300781 C 46.269531 37.285156 47.3125 34.671875 47.730469 33.027344 C 48.269531 30.898438 48.386719 29.214844 48.371094 24.070312 L 48.34375 19.785156 L 47.472656 17.355469 C 46.242188 13.941406 45.699219 12.714844 44.671875 11.015625 C 43.386719 8.871094 42.101562 7.6875 39.414062 6.230469 C 38.285156 5.601562 37.042969 4.886719 36.644531 4.644531 C 34.472656 3.285156 32.84375 2.558594 31.414062 2.300781 C 30.914062 2.214844 29.285156 2.113281 27.785156 2.085938 C 25.941406 2.042969 24.800781 1.957031 24.214844 1.800781 C 23.742188 1.671875 23.128906 1.613281 22.855469 1.65625 C 21.65625 1.855469 14.984375 4.199219 13.355469 5 C 10.730469 6.300781 10.171875 6.699219 8.769531 8.328125 C 7.285156 10.058594 5.101562 12.957031 4.714844 13.714844 C 4.371094 14.398438 3.585938 17.144531 2.199219 22.570312 L 1.558594 25.070312 L 1.714844 26.5 C 1.855469 27.929688 2.171875 29.414062 2.785156 31.714844 C 2.957031 32.386719 3.15625 33.113281 3.199219 33.328125 C 3.257812 33.542969 3.429688 34.085938 3.601562 34.527344 L 3.886719 35.328125 L 5.101562 31.5 C 7.371094 24.269531 9.871094 17.457031 11.171875 14.957031 C 11.800781 13.742188 12.414062 13.15625 13.714844 12.484375 C 14.414062 12.144531 14.65625 12.085938 15.886719 12.085938 L 17.269531 12.070312 L 18.742188 10.644531 C 19.8125 9.601562 20.484375 9.085938 21.214844 8.714844 C 22.1875 8.230469 22.257812 8.214844 23.855469 8.214844 C 25.65625 8.230469 27.101562 8.527344 28.898438 9.285156 C 29.644531 9.601562 29.957031 9.65625 30.285156 9.570312 C 30.5 9.515625 31.398438 9.371094 32.257812 9.285156 C 35.441406 8.929688 36.957031 9.613281 38.386719 12.070312 C 38.886719 12.941406 39.628906 14.515625 39.898438 15.328125 C 39.972656 15.527344 40.171875 15.570312 40.957031 15.570312 C 42.257812 15.570312 42.914062 15.769531 43.585938 16.398438 C 44.230469 16.972656 44.714844 17.8125 45.058594 18.984375 C 45.398438 20.15625 45.371094 24.8125 45 27 C 44.144531 32.101562 43.5 34.472656 41.558594 39.785156 C 41.386719 40.257812 40.898438 41.429688 40.484375 42.398438 C 40.015625 43.515625 39.8125 44.101562 39.972656 43.984375 C 40.101562 43.871094 40.929688 43.199219 41.800781 42.472656 Z M 41.800781 42.472656 "/>
<path style=" stroke:none;fill-rule:nonzero;fill:rgb(34.509804%,18.823529%,3.921569%);fill-opacity:1;" d="M 28.5 37.230469 C 26.300781 36.828125 24.328125 36.355469 23.414062 36 C 23.058594 35.855469 21.542969 35.441406 20.058594 35.070312 C 16.8125 34.269531 14.757812 33.65625 14.3125 33.34375 C 13.871094 33.027344 13.328125 32.144531 12.914062 31.058594 C 12.441406 29.785156 12.429688 28.058594 12.898438 27.144531 C 13.570312 25.800781 15.34375 25.058594 17.515625 25.1875 L 18.828125 25.257812 L 18.929688 24.886719 C 19.101562 24.214844 19.84375 23.058594 20.484375 22.457031 C 21.730469 21.300781 23.128906 20.855469 25.429688 20.855469 C 28.527344 20.855469 30.269531 21.714844 31.785156 24 C 32.441406 25 32.84375 26.285156 32.855469 27.429688 C 32.855469 27.886719 32.914062 27.957031 33.558594 28.242188 C 35.484375 29.144531 36.8125 30.429688 37.15625 31.757812 C 37.398438 32.769531 37.269531 34.785156 36.886719 35.527344 C 36.515625 36.257812 35.730469 36.914062 34.871094 37.230469 C 33.757812 37.628906 30.742188 37.628906 28.5 37.230469 Z M 34.015625 35.941406 C 35.199219 35.441406 35.984375 34.355469 36 33.242188 C 36 32.484375 35.414062 31.414062 34.613281 30.730469 C 34.015625 30.230469 32.671875 29.457031 31.984375 29.242188 C 31.8125 29.1875 31.714844 28.84375 31.601562 27.898438 C 31.027344 23.527344 26.800781 20.957031 22.972656 22.671875 C 21.542969 23.300781 20.15625 25.085938 19.914062 26.613281 C 19.828125 27.085938 19.769531 27.144531 19.386719 27.144531 C 19.144531 27.144531 18.65625 27 18.300781 26.828125 C 17.371094 26.355469 16.429688 26.398438 15.441406 26.929688 C 13.929688 27.757812 13.570312 28.742188 14.214844 30.285156 C 14.84375 31.785156 15.257812 32.199219 16.542969 32.628906 C 17.144531 32.828125 18.570312 33.214844 19.714844 33.5 C 22.941406 34.300781 23.871094 34.542969 24.65625 34.84375 C 25.601562 35.214844 28.886719 35.929688 30.785156 36.199219 C 31.585938 36.3125 33.5 36.15625 34.015625 35.941406 Z M 34.015625 35.941406 "/>
<path style=" stroke:none;fill-rule:nonzero;fill:rgb(34.509804%,18.823529%,3.921569%);fill-opacity:1;" d="M 36.300781 27.058594 C 35.8125 26.714844 35.570312 25.984375 35.570312 24.871094 C 35.570312 23.527344 35.785156 22.558594 36.371094 21.328125 C 37.042969 19.914062 37.484375 19.570312 38.628906 19.570312 C 39.800781 19.570312 40.628906 20.070312 41.128906 21.058594 C 41.429688 21.65625 41.457031 21.886719 41.398438 23.070312 C 41.355469 24.257812 41.285156 24.527344 40.84375 25.386719 C 40.472656 26.128906 40.199219 26.457031 39.65625 26.828125 C 39.015625 27.257812 38.886719 27.285156 37.800781 27.285156 C 36.957031 27.285156 36.542969 27.230469 36.300781 27.058594 Z M 38.671875 25.585938 C 39.3125 25.113281 39.929688 24.015625 40.070312 23.070312 C 40.171875 22.355469 39.8125 21.644531 39.144531 21.171875 L 38.65625 20.855469 L 38.269531 21.230469 C 37.527344 21.941406 36.699219 24.386719 36.941406 25.1875 C 37.214844 26.070312 37.800781 26.214844 38.671875 25.585938 Z M 38.671875 25.585938 "/>
<path style=" stroke:none;fill-rule:nonzero;fill:rgb(34.509804%,18.823529%,3.921569%);fill-opacity:1;" d="M 13.855469 22.8125 C 13.285156 22.527344 13 21.785156 13 20.570312 C 13 18.542969 13.699219 16.585938 14.742188 15.644531 C 15.300781 15.128906 15.355469 15.113281 16.15625 15.171875 C 17.214844 15.242188 18.042969 15.785156 18.542969 16.714844 C 18.84375 17.300781 18.871094 17.484375 18.8125 18.714844 C 18.769531 19.769531 18.6875 20.242188 18.398438 20.855469 C 18 21.730469 17.34375 22.441406 16.644531 22.785156 C 16.070312 23.042969 14.371094 23.070312 13.855469 22.8125 Z M 16.070312 21.328125 C 16.644531 20.914062 17.269531 19.828125 17.441406 18.957031 C 17.601562 18.230469 17.585938 18.113281 17.300781 17.65625 C 17.113281 17.371094 16.785156 17.015625 16.558594 16.84375 L 16.128906 16.542969 L 15.714844 16.929688 C 15.214844 17.414062 14.613281 18.730469 14.414062 19.769531 C 14.113281 21.429688 14.898438 22.171875 16.070312 21.328125 Z M 16.070312 21.328125 "/>
<path style=" stroke:none;fill-rule:nonzero;fill:rgb(34.509804%,18.823529%,3.921569%);fill-opacity:1;" d="M 30.644531 21 C 30.484375 20.941406 30.199219 20.714844 30 20.5 C 29.6875 20.171875 29.644531 19.972656 29.601562 18.871094 C 29.515625 16.871094 30.15625 14.855469 31.199219 13.8125 C 31.671875 13.328125 31.800781 13.285156 32.515625 13.285156 C 34.34375 13.285156 35.429688 14.5 35.429688 16.558594 C 35.429688 18.515625 34.570312 20.199219 33.242188 20.84375 C 32.601562 21.15625 31.214844 21.242188 30.644531 21 Z M 32.65625 19.355469 C 33.230469 18.914062 33.84375 17.914062 34.015625 17.113281 C 34.199219 16.328125 33.972656 15.714844 33.257812 15.070312 L 32.6875 14.542969 L 32.355469 14.855469 C 31.871094 15.3125 31.3125 16.429688 31.070312 17.441406 C 30.785156 18.65625 30.800781 18.886719 31.15625 19.34375 C 31.527344 19.8125 32.042969 19.828125 32.65625 19.355469 Z M 32.65625 19.355469 "/>
<path style=" stroke:none;fill-rule:nonzero;fill:rgb(34.509804%,18.823529%,3.921569%);fill-opacity:1;" d="M 22.457031 19.144531 C 21.84375 18.769531 21.714844 18.371094 21.714844 16.886719 C 21.714844 14.671875 22.414062 12.742188 23.515625 11.914062 C 24.542969 11.128906 26.5 11.742188 27.144531 13.058594 C 27.5 13.800781 27.542969 15.730469 27.214844 16.800781 C 26.898438 17.800781 26.15625 18.757812 25.371094 19.113281 C 24.5 19.527344 23.113281 19.542969 22.457031 19.144531 Z M 24.730469 17.671875 C 25.472656 17.113281 26.015625 16.101562 26.113281 15.144531 C 26.171875 14.542969 26.113281 14.328125 25.828125 13.886719 C 25.628906 13.601562 25.300781 13.257812 25.070312 13.144531 C 24.6875 12.941406 24.671875 12.941406 24.214844 13.472656 C 23.613281 14.171875 23.128906 15.414062 23.042969 16.542969 C 22.972656 17.34375 23 17.472656 23.285156 17.785156 C 23.730469 18.257812 24 18.230469 24.730469 17.671875 Z M 24.730469 17.671875 "/>
<path style=" stroke:none;fill-rule:nonzero;fill:rgb(76.470588%,71.764706%,67.843137%);fill-opacity:1;" d="M 21.714844 48.5 C 18.542969 48.242188 17.34375 47.972656 16.070312 47.257812 C 15.527344 46.941406 14.171875 46.269531 13.085938 45.769531 C 10.65625 44.65625 9.585938 43.871094 7 41.285156 C 5.484375 39.769531 4.972656 39.15625 4.613281 38.429688 L 4.15625 37.5 L 5.171875 34.285156 C 6.058594 31.5 8.386719 24.570312 9.472656 21.5 C 10.6875 18.085938 12 15.1875 12.730469 14.371094 C 13.714844 13.242188 16.214844 12.484375 17.085938 13.058594 L 17.441406 13.300781 L 19.1875 11.613281 C 21.257812 9.628906 22.386719 8.957031 23.714844 8.957031 C 24.757812 8.941406 26.914062 9.5 28.472656 10.15625 C 29.65625 10.65625 29.769531 10.6875 30.257812 10.515625 C 30.558594 10.414062 31.429688 10.242188 32.214844 10.15625 C 34.601562 9.855469 35.769531 10.230469 36.914062 11.613281 C 37.542969 12.386719 38.769531 14.785156 39.085938 15.84375 C 39.269531 16.515625 39.34375 16.585938 39.613281 16.515625 C 40.941406 16.15625 42.269531 16.429688 43.058594 17.214844 C 43.542969 17.699219 44.085938 18.699219 44.214844 19.355469 C 44.742188 22.085938 44.628906 24.472656 43.769531 28.929688 C 42.886719 33.472656 41.257812 38.441406 39.113281 43.128906 C 37.800781 45.984375 37.644531 46.242188 37.101562 46.414062 C 36.84375 46.484375 35.898438 46.8125 35 47.128906 C 31.941406 48.214844 30.6875 48.429688 25.785156 48.628906 C 24.929688 48.671875 23.085938 48.613281 21.714844 48.5 Z M 34.441406 36.800781 C 35.828125 36.300781 36.6875 35.1875 36.8125 33.699219 C 37.015625 31.570312 35.785156 29.898438 33.128906 28.671875 C 32.484375 28.386719 32.429688 28.3125 32.429688 27.855469 C 32.414062 25.601562 31.015625 23.300781 28.914062 22.070312 C 27.1875 21.058594 24.027344 21.027344 22.128906 22.015625 C 20.871094 22.644531 19.699219 24.085938 19.285156 25.515625 L 19.113281 26.113281 L 18.300781 25.828125 C 17.328125 25.484375 16.230469 25.542969 15.199219 25.984375 C 13.671875 26.671875 13.015625 27.558594 13 28.957031 C 13 30.1875 13.957031 32.371094 14.742188 32.914062 C 15.1875 33.230469 17.242188 33.84375 20.484375 34.644531 C 21.972656 35.015625 23.484375 35.429688 23.84375 35.570312 C 24.757812 35.929688 26.730469 36.398438 28.929688 36.800781 C 31.085938 37.199219 33.34375 37.1875 34.441406 36.800781 Z M 39.230469 26.398438 C 39.757812 26.042969 40.042969 25.699219 40.398438 24.984375 C 41.386719 23.070312 41.113281 21.285156 39.730469 20.398438 C 38.472656 19.613281 37.628906 20 36.800781 21.757812 C 35.769531 23.929688 35.742188 25.929688 36.730469 26.628906 C 36.929688 26.769531 37.355469 26.855469 37.800781 26.855469 C 38.398438 26.855469 38.671875 26.769531 39.230469 26.398438 Z M 16.214844 22.355469 C 17.398438 21.785156 18.269531 20.328125 18.386719 18.714844 C 18.441406 17.929688 18.398438 17.6875 18.113281 17.144531 C 17.730469 16.429688 16.886719 15.757812 16.199219 15.628906 C 14.644531 15.328125 12.757812 19.886719 13.6875 21.714844 C 13.8125 21.984375 14.085938 22.285156 14.285156 22.386719 C 14.769531 22.628906 15.644531 22.613281 16.214844 22.355469 Z M 32.8125 20.414062 C 33.65625 20 34.328125 19.171875 34.699219 18.070312 C 35.328125 16.144531 34.871094 14.742188 33.398438 13.984375 C 32.613281 13.585938 32.230469 13.644531 31.628906 14.242188 C 30.230469 15.644531 29.515625 19.101562 30.441406 20.085938 C 31.085938 20.785156 31.84375 20.886719 32.8125 20.414062 Z M 24.941406 18.6875 C 26.585938 17.914062 27.527344 15.171875 26.714844 13.484375 C 26.398438 12.84375 25.558594 12.1875 24.855469 12.042969 C 23.613281 11.800781 22.15625 14.414062 22.144531 16.886719 C 22.144531 17.941406 22.3125 18.355469 22.886719 18.714844 C 23.5 19.085938 24.128906 19.070312 24.941406 18.6875 Z M 24.941406 18.6875 "/>
<path style=" stroke:none;fill-rule:nonzero;fill:rgb(76.470588%,71.764706%,67.843137%);fill-opacity:1;" d="M 34.058594 36.34375 C 35.144531 35.957031 35.84375 35.242188 36.230469 34.171875 C 36.34375 33.871094 36.414062 33.757812 36.414062 33.929688 C 36.429688 35.015625 34.800781 36.613281 33.730469 36.558594 C 33.601562 36.558594 33.757812 36.457031 34.058594 36.34375 Z M 34.058594 36.34375 "/>
<path style=" stroke:none;fill-rule:nonzero;fill:rgb(76.470588%,71.764706%,67.843137%);fill-opacity:1;" d="M 24.570312 35.398438 C 24.144531 35.242188 23.398438 34.984375 22.929688 34.855469 C 22.457031 34.714844 22.199219 34.585938 22.355469 34.585938 C 22.515625 34.585938 23.386719 34.828125 24.285156 35.144531 C 25.1875 35.441406 25.800781 35.699219 25.644531 35.699219 C 25.484375 35.699219 25 35.558594 24.570312 35.398438 Z M 24.570312 35.398438 "/>
<path style=" stroke:none;fill-rule:nonzero;fill:rgb(76.470588%,71.764706%,67.843137%);fill-opacity:1;" d="M 19.855469 34.101562 C 19.5 34.015625 19.3125 33.929688 19.429688 33.898438 C 19.542969 33.871094 19.929688 33.941406 20.285156 34.058594 C 21.042969 34.285156 20.785156 34.328125 19.855469 34.101562 Z M 19.855469 34.101562 "/>
<path style=" stroke:none;fill-rule:nonzero;fill:rgb(76.470588%,71.764706%,67.843137%);fill-opacity:1;" d="M 16.328125 33.128906 C 14.828125 32.644531 14.441406 32.285156 13.800781 30.757812 C 13.34375 29.671875 13.328125 29.285156 13.714844 29.285156 C 13.972656 29.285156 14 29.371094 13.972656 30.042969 C 13.941406 30.628906 14.027344 30.929688 14.328125 31.441406 C 14.898438 32.398438 15.15625 32.585938 16.6875 33.101562 C 17.457031 33.34375 17.972656 33.558594 17.855469 33.558594 C 17.742188 33.558594 17.058594 33.371094 16.328125 33.128906 Z M 16.328125 33.128906 "/>
<path style=" stroke:none;fill-rule:nonzero;fill:rgb(76.470588%,71.764706%,67.843137%);fill-opacity:1;" d="M 36 33.085938 C 36 32.800781 36.070312 32.570312 36.15625 32.570312 C 36.386719 32.570312 36.15625 32 35.613281 31.257812 C 35.101562 30.558594 33.871094 29.644531 32.699219 29.101562 C 32.042969 28.8125 32 28.757812 32.015625 28.285156 L 32.042969 27.785156 L 32.128906 28.269531 C 32.199219 28.671875 32.3125 28.785156 32.855469 28.984375 C 34.898438 29.769531 36.355469 31.34375 36.457031 32.871094 C 36.484375 33.371094 36.441406 33.5 36.257812 33.542969 C 36.042969 33.585938 36 33.484375 36 33.085938 Z M 36 33.085938 "/>
<path style=" stroke:none;fill-rule:nonzero;fill:rgb(76.470588%,71.764706%,67.843137%);fill-opacity:1;" d="M 13.5 28.214844 C 13.714844 27.230469 15.015625 26.230469 16.34375 26.058594 C 16.941406 25.972656 17 25.984375 17 26.269531 C 17 26.515625 16.914062 26.570312 16.515625 26.570312 C 16.242188 26.570312 16 26.5 15.972656 26.414062 C 15.929688 26.300781 15.757812 26.328125 15.429688 26.5 C 14.542969 26.941406 13.972656 27.457031 13.6875 28.058594 C 13.457031 28.542969 13.429688 28.570312 13.5 28.214844 Z M 13.5 28.214844 "/>
<path style=" stroke:none;fill-rule:nonzero;fill:rgb(76.470588%,71.764706%,67.843137%);fill-opacity:1;" d="M 31.769531 26.757812 C 31.386719 24.699219 29.3125 22.558594 27.144531 21.957031 C 26.355469 21.742188 26.3125 21.714844 26.855469 21.785156 C 27.699219 21.886719 29.058594 22.542969 29.8125 23.199219 C 30.984375 24.214844 32.113281 26.371094 31.972656 27.3125 C 31.941406 27.484375 31.855469 27.242188 31.769531 26.757812 Z M 31.769531 26.757812 "/>
<path style=" stroke:none;fill-rule:nonzero;fill:rgb(76.470588%,71.764706%,67.843137%);fill-opacity:1;" d="M 17.929688 26.269531 C 17.414062 26.058594 17.34375 26 17.65625 26.058594 C 18.1875 26.144531 19.171875 26.542969 18.855469 26.542969 C 18.742188 26.542969 18.328125 26.414062 17.929688 26.269531 Z M 17.929688 26.269531 "/>
<path style=" stroke:none;fill-rule:nonzero;fill:rgb(76.470588%,71.764706%,67.843137%);fill-opacity:1;" d="M 19.5 26.15625 C 19.828125 24.085938 21.929688 22.058594 24 21.785156 L 24.644531 21.714844 L 23.898438 21.929688 C 21.828125 22.515625 20.570312 23.6875 19.757812 25.785156 C 19.515625 26.398438 19.441406 26.5 19.5 26.15625 Z M 19.5 26.15625 "/>
<path style=" stroke:none;fill-rule:nonzero;fill:rgb(76.470588%,71.764706%,67.843137%);fill-opacity:1;" d="M 25.113281 21.613281 C 25.285156 21.585938 25.542969 21.585938 25.6875 21.613281 C 25.8125 21.65625 25.671875 21.6875 25.355469 21.671875 C 25.042969 21.671875 24.929688 21.644531 25.113281 21.613281 Z M 25.113281 21.613281 "/>
<path style=" stroke:none;fill-rule:nonzero;fill:rgb(76.470588%,71.764706%,67.843137%);fill-opacity:1;" d="M 36.941406 26.257812 C 36.742188 26.070312 36.542969 25.742188 36.5 25.5 L 36.414062 25.070312 L 36.613281 25.5 C 36.855469 26.015625 37.144531 26.269531 37.671875 26.429688 L 38.070312 26.542969 L 37.6875 26.558594 C 37.472656 26.570312 37.144531 26.429688 36.941406 26.257812 Z M 36.941406 26.257812 "/>
<path style=" stroke:none;fill-rule:nonzero;fill:rgb(76.470588%,71.764706%,67.843137%);fill-opacity:1;" d="M 38.800781 25.972656 C 39.3125 25.613281 39.613281 25.269531 39.957031 24.601562 C 40.214844 24.101562 40.429688 23.785156 40.429688 23.886719 C 40.429688 24 40.257812 24.429688 40.058594 24.84375 C 39.6875 25.585938 38.757812 26.429688 38.3125 26.429688 C 38.199219 26.429688 38.429688 26.214844 38.800781 25.972656 Z M 38.800781 25.972656 "/>
<path style=" stroke:none;fill-rule:nonzero;fill:rgb(76.470588%,71.764706%,67.843137%);fill-opacity:1;" d="M 36.5 23.972656 C 36.699219 22.527344 37.386719 21.113281 38.15625 20.527344 C 38.527344 20.257812 38.542969 20.257812 39.171875 20.542969 C 39.871094 20.84375 40.355469 21.414062 40.5 22.085938 C 40.570312 22.414062 40.527344 22.371094 40.257812 21.871094 C 39.855469 21.085938 38.8125 20.371094 38.414062 20.585938 C 38.027344 20.785156 37.484375 21.558594 37.070312 22.472656 C 36.6875 23.34375 36.628906 23.714844 36.855469 23.714844 C 36.941406 23.714844 37 23.941406 37 24.214844 C 37 24.628906 36.941406 24.714844 36.699219 24.714844 C 36.429688 24.714844 36.414062 24.65625 36.5 23.972656 Z M 36.5 23.972656 "/>
<path style=" stroke:none;fill-rule:nonzero;fill:rgb(76.470588%,71.764706%,67.843137%);fill-opacity:1;" d="M 14.769531 22.1875 C 14.355469 22.101562 14.042969 21.742188 13.929688 21.214844 L 13.84375 20.785156 L 14.042969 21.214844 C 14.414062 22.015625 15.027344 22.269531 15.757812 21.929688 C 16.472656 21.601562 17.144531 20.886719 17.527344 20.070312 C 17.769531 19.558594 17.84375 19.472656 17.785156 19.785156 C 17.671875 20.3125 16.957031 21.429688 16.527344 21.730469 C 16.214844 21.957031 15.3125 22.300781 15.15625 22.269531 C 15.113281 22.257812 14.929688 22.214844 14.769531 22.1875 Z M 14.769531 22.1875 "/>
<path style=" stroke:none;fill-rule:nonzero;fill:rgb(76.470588%,71.764706%,67.843137%);fill-opacity:1;" d="M 14.058594 19.015625 C 14.269531 17.8125 15.441406 16 16.015625 16 C 16.699219 16 18 17.257812 18 17.914062 C 18 18.113281 17.898438 18.015625 17.6875 17.585938 C 17.398438 17 16.441406 16.144531 16.070312 16.144531 C 15.929688 16.144531 15.285156 16.757812 14.871094 17.3125 C 14.769531 17.441406 14.527344 18 14.34375 18.527344 C 14.144531 19.058594 14.015625 19.285156 14.058594 19.015625 Z M 14.058594 19.015625 "/>
<path style=" stroke:none;fill-rule:nonzero;fill:rgb(76.470588%,71.764706%,67.843137%);fill-opacity:1;" d="M 30.84375 19.871094 C 30.613281 19.644531 30.429688 19.328125 30.441406 19.1875 C 30.441406 18.957031 30.457031 18.957031 30.570312 19.214844 C 30.699219 19.542969 31.242188 20.070312 31.570312 20.1875 C 31.730469 20.242188 31.730469 20.269531 31.527344 20.269531 C 31.386719 20.285156 31.070312 20.101562 30.84375 19.871094 Z M 30.84375 19.871094 "/>
<path style=" stroke:none;fill-rule:nonzero;fill:rgb(76.470588%,71.764706%,67.843137%);fill-opacity:1;" d="M 32.8125 19.730469 C 33.6875 19.101562 34.484375 17.785156 34.144531 17.570312 C 34.027344 17.5 33.984375 17.085938 34.015625 16.386719 C 34.058594 15.414062 34.027344 15.257812 33.730469 14.941406 C 33.269531 14.457031 32.671875 14.230469 32.328125 14.414062 C 31.914062 14.628906 31.300781 15.585938 30.914062 16.601562 C 30.671875 17.214844 30.585938 17.34375 30.65625 17 C 30.769531 16.230469 31.527344 14.769531 32 14.371094 C 32.355469 14.070312 32.5 14.042969 32.886719 14.15625 C 33.484375 14.328125 34.242188 15.070312 34.441406 15.6875 C 34.6875 16.429688 34.5 17.757812 34.042969 18.601562 C 33.644531 19.34375 32.800781 20.144531 32.441406 20.144531 C 32.328125 20.144531 32.5 19.957031 32.8125 19.730469 Z M 32.8125 19.730469 "/>
<path style=" stroke:none;fill-rule:nonzero;fill:rgb(76.470588%,71.764706%,67.843137%);fill-opacity:1;" d="M 30.457031 18.113281 C 30.484375 17.800781 30.585938 17.628906 30.757812 17.601562 C 30.957031 17.558594 31 17.65625 31 18.058594 C 31 18.484375 30.941406 18.570312 30.699219 18.570312 C 30.457031 18.570312 30.414062 18.5 30.457031 18.113281 Z M 30.457031 18.113281 "/>
<path style=" stroke:none;fill-rule:nonzero;fill:rgb(76.470588%,71.764706%,67.843137%);fill-opacity:1;" d="M 22.886719 18.242188 C 22.699219 18.058594 22.527344 17.628906 22.484375 17.242188 C 22.398438 16.628906 22.414062 16.570312 22.699219 16.570312 C 22.941406 16.570312 23 16.65625 23 17.058594 C 23 17.328125 22.929688 17.570312 22.828125 17.601562 C 22.601562 17.6875 22.800781 17.972656 23.34375 18.300781 C 23.714844 18.527344 23.742188 18.570312 23.484375 18.570312 C 23.328125 18.570312 23.058594 18.429688 22.886719 18.242188 Z M 22.886719 18.242188 "/>
<path style=" stroke:none;fill-rule:nonzero;fill:rgb(76.470588%,71.764706%,67.843137%);fill-opacity:1;" d="M 23.855469 18.285156 C 23.855469 18.042969 23.957031 18 24.5 18 C 25.101562 18 25.171875 17.957031 25.644531 17.328125 C 25.914062 16.941406 26.242188 16.355469 26.355469 16 C 26.558594 15.429688 26.570312 15.414062 26.5 15.855469 C 26.386719 16.65625 25.8125 17.601562 25.15625 18.101562 C 24.457031 18.644531 23.855469 18.730469 23.855469 18.285156 Z M 23.855469 18.285156 "/>
<path style=" stroke:none;fill-rule:nonzero;fill:rgb(76.470588%,71.764706%,67.843137%);fill-opacity:1;" d="M 22.644531 15.757812 C 22.8125 14.34375 23.941406 12.429688 24.601562 12.429688 C 25.570312 12.429688 26.527344 13.457031 26.644531 14.644531 L 26.699219 15.355469 L 26.570312 14.742188 C 26.5 14.414062 26.328125 13.941406 26.1875 13.714844 C 25.957031 13.300781 25.015625 12.570312 24.742188 12.570312 C 24.1875 12.570312 23.128906 14.15625 22.785156 15.515625 C 22.613281 16.171875 22.585938 16.230469 22.644531 15.757812 Z M 22.644531 15.757812 "/>
<path style=" stroke:none;fill-rule:nonzero;fill:rgb(76.470588%,71.764706%,67.843137%);fill-opacity:1;" d="M 38.957031 44.414062 C 40.070312 42.101562 40.941406 39.972656 41.886719 37.214844 C 42.128906 36.515625 42.355469 36 42.386719 36.085938 C 42.414062 36.171875 42.269531 36.6875 42.058594 37.230469 C 41.828125 37.84375 41.6875 38.472656 41.699219 38.898438 C 41.714844 39.457031 41.671875 39.570312 41.457031 39.570312 C 41.269531 39.570312 41.128906 39.785156 40.929688 40.328125 C 40.785156 40.730469 40.269531 41.957031 39.769531 43.042969 C 39.15625 44.398438 38.941406 45 39.085938 45 C 39.429688 45 39.3125 45.269531 38.855469 45.5 C 38.628906 45.613281 38.414062 45.714844 38.386719 45.714844 C 38.34375 45.714844 38.601562 45.128906 38.957031 44.414062 Z M 38.957031 44.414062 "/>
<path style=" stroke:none;fill-rule:nonzero;fill:rgb(76.470588%,71.764706%,67.843137%);fill-opacity:1;" d="M 3.742188 36.570312 C 3.613281 36.242188 3.613281 36.058594 3.714844 36.027344 C 3.785156 36 3.855469 35.785156 3.855469 35.558594 C 3.855469 35.242188 3.929688 35.144531 4.144531 35.144531 C 4.398438 35.144531 4.429688 35.070312 4.34375 34.601562 C 4.230469 33.84375 4.65625 32.285156 5 32.285156 C 5.199219 32.285156 5.230469 32.171875 5.171875 31.570312 C 5.113281 30.929688 5.128906 30.855469 5.398438 30.855469 C 5.570312 30.855469 5.730469 30.730469 5.785156 30.558594 C 5.84375 30.398438 5.914062 30.285156 5.941406 30.328125 C 5.972656 30.355469 5.613281 31.628906 5.128906 33.15625 C 4.65625 34.6875 4.1875 36.1875 4.085938 36.5 L 3.914062 37.070312 Z M 3.742188 36.570312 "/>
<path style=" stroke:none;fill-rule:nonzero;fill:rgb(76.470588%,71.764706%,67.843137%);fill-opacity:1;" d="M 42.484375 35.644531 C 42.515625 35.484375 42.714844 34.730469 42.941406 33.972656 C 43.371094 32.472656 43.714844 32.101562 43.714844 33.144531 C 43.714844 33.601562 43.65625 33.714844 43.457031 33.714844 C 43.269531 33.714844 43.101562 34 42.8125 34.828125 C 42.601562 35.429688 42.457031 35.800781 42.484375 35.644531 Z M 42.484375 35.644531 "/>
<path style=" stroke:none;fill-rule:nonzero;fill:rgb(76.470588%,71.764706%,67.843137%);fill-opacity:1;" d="M 43.441406 32.355469 C 43.398438 31.941406 43.914062 30.285156 44.085938 30.285156 C 44.386719 30.285156 44.355469 31.257812 44.042969 31.3125 C 43.914062 31.34375 43.730469 31.613281 43.628906 31.929688 C 43.542969 32.242188 43.457031 32.441406 43.441406 32.355469 Z M 43.441406 32.355469 "/>
<path style=" stroke:none;fill-rule:nonzero;fill:rgb(76.470588%,71.764706%,67.843137%);fill-opacity:1;" d="M 6.015625 30.058594 C 6 29.972656 6.472656 28.5 7.042969 26.769531 C 7.886719 24.285156 8.085938 23.515625 8.027344 23.042969 C 8 22.644531 8.027344 22.429688 8.128906 22.429688 C 8.214844 22.429688 8.285156 22.242188 8.285156 22 C 8.285156 21.671875 8.34375 21.570312 8.570312 21.570312 C 8.714844 21.570312 8.914062 21.457031 9 21.328125 C 9.214844 21 9.242188 20.914062 7.898438 24.785156 C 7.269531 26.601562 6.585938 28.558594 6.386719 29.144531 C 6.1875 29.730469 6.015625 30.144531 6.015625 30.058594 Z M 6.015625 30.058594 "/>
<path style=" stroke:none;fill-rule:nonzero;fill:rgb(76.470588%,71.764706%,67.843137%);fill-opacity:1;" d="M 44 29.8125 C 44 29.699219 44.070312 29.257812 44.15625 28.8125 C 44.269531 28.242188 44.371094 28.042969 44.515625 28.101562 C 44.730469 28.171875 44.785156 29.085938 44.628906 29.6875 C 44.527344 30.027344 44 30.144531 44 29.8125 Z M 44 29.8125 "/>
<path style=" stroke:none;fill-rule:nonzero;fill:rgb(76.470588%,71.764706%,67.843137%);fill-opacity:1;" d="M 44.441406 27.601562 C 44.441406 27.457031 44.527344 26.84375 44.644531 26.214844 C 44.914062 24.558594 44.898438 20.355469 44.613281 19.398438 C 44.101562 17.628906 43.144531 16.441406 41.972656 16.144531 C 41.644531 16.042969 40.957031 16 40.472656 16.027344 C 39.65625 16.085938 39.558594 16.058594 39.484375 15.785156 C 39.128906 14.613281 37.769531 12 37.070312 11.171875 C 36.714844 10.742188 35.769531 10.101562 35.214844 9.871094 L 34.785156 9.714844 L 35.214844 9.785156 C 35.457031 9.828125 35.914062 9.898438 36.257812 9.957031 C 36.769531 10.027344 36.855469 10.085938 36.855469 10.371094 C 36.855469 10.644531 36.929688 10.714844 37.214844 10.714844 C 37.515625 10.714844 37.570312 10.785156 37.570312 11.113281 C 37.570312 11.570312 37.800781 11.855469 38.171875 11.855469 C 38.328125 11.855469 38.429688 11.957031 38.429688 12.144531 C 38.429688 12.300781 38.5 12.429688 38.570312 12.429688 C 38.65625 12.429688 38.714844 12.6875 38.714844 13 C 38.714844 13.472656 38.757812 13.570312 39 13.570312 C 39.1875 13.570312 39.285156 13.671875 39.285156 13.855469 C 39.285156 14.015625 39.355469 14.144531 39.441406 14.144531 C 39.558594 14.144531 39.585938 14.355469 39.542969 14.757812 C 39.429688 15.769531 39.542969 15.914062 40.441406 15.871094 C 40.871094 15.855469 41.242188 15.769531 41.257812 15.699219 C 41.3125 15.558594 41.769531 15.527344 42.398438 15.65625 C 42.699219 15.714844 42.855469 15.84375 42.886719 16.058594 C 42.914062 16.285156 43.042969 16.371094 43.386719 16.398438 C 43.785156 16.441406 43.84375 16.5 43.886719 16.898438 C 43.914062 17.242188 44 17.371094 44.257812 17.398438 C 44.457031 17.429688 44.570312 17.542969 44.570312 17.730469 C 44.570312 17.871094 44.644531 18 44.714844 18 C 44.800781 18 44.855469 18.199219 44.855469 18.429688 C 44.855469 18.671875 44.914062 18.855469 44.984375 18.855469 C 45.128906 18.855469 45.429688 20.414062 45.429688 21.1875 C 45.429688 21.558594 45.371094 21.714844 45.214844 21.714844 C 45.042969 21.714844 45 21.898438 45 22.5 C 45 23.128906 45.042969 23.285156 45.230469 23.285156 C 45.441406 23.285156 45.457031 23.429688 45.371094 24.398438 C 45.199219 26.558594 44.957031 27.6875 44.6875 27.757812 C 44.515625 27.8125 44.429688 27.757812 44.441406 27.601562 Z M 44.441406 27.601562 "/>
<path style=" stroke:none;fill-rule:nonzero;fill:rgb(76.470588%,71.764706%,67.843137%);fill-opacity:1;" d="M 9.144531 20.871094 C 9.144531 20.785156 9.230469 20.5 9.328125 20.242188 C 9.429688 19.984375 9.484375 19.515625 9.457031 19.1875 C 9.414062 18.800781 9.457031 18.570312 9.558594 18.570312 C 9.644531 18.570312 9.714844 18.441406 9.714844 18.285156 C 9.714844 18.128906 9.785156 18 9.855469 18 C 9.941406 18 10 17.84375 10 17.644531 C 10 17.398438 10.070312 17.285156 10.257812 17.285156 C 10.585938 17.285156 11.285156 15.699219 11.285156 14.972656 C 11.285156 14.515625 11.328125 14.429688 11.585938 14.429688 C 11.957031 14.429688 12.414062 13.898438 12.429688 13.472656 C 12.429688 13.199219 12.515625 13.144531 12.855469 13.144531 C 13.101562 13.144531 13.472656 13.058594 13.6875 12.941406 C 13.898438 12.84375 14.230469 12.714844 14.429688 12.65625 C 14.628906 12.601562 14.472656 12.730469 14.070312 12.941406 C 12.285156 13.886719 11.769531 14.644531 10.144531 18.714844 C 9.214844 21 9.144531 21.171875 9.144531 20.871094 Z M 9.144531 20.871094 "/>
<path style=" stroke:none;fill-rule:nonzero;fill:rgb(76.470588%,71.764706%,67.843137%);fill-opacity:1;" d="M 17.285156 12.714844 C 17.285156 12.644531 17.1875 12.570312 17.070312 12.570312 C 16.957031 12.570312 16.855469 12.527344 16.855469 12.484375 C 16.855469 12.3125 17.355469 12.015625 17.65625 12 C 18.058594 12 18.285156 11.730469 18.285156 11.257812 C 18.285156 10.957031 18.355469 10.855469 18.570312 10.855469 C 18.757812 10.855469 18.855469 10.757812 18.855469 10.570312 C 18.855469 10.355469 18.957031 10.285156 19.230469 10.285156 C 19.769531 10.285156 20.429688 9.769531 20.429688 9.34375 C 20.429688 9.113281 20.515625 9 20.65625 9 C 20.785156 9 20.972656 8.886719 21.070312 8.757812 C 21.214844 8.558594 21.527344 8.5 22.65625 8.472656 C 23.441406 8.441406 24.085938 8.371094 24.113281 8.285156 C 24.144531 8.214844 24.386719 8.144531 24.644531 8.144531 C 24.972656 8.144531 25.128906 8.214844 25.171875 8.398438 C 25.242188 8.628906 25.128906 8.65625 23.941406 8.644531 C 22.058594 8.644531 21.1875 9.101562 19.015625 11.242188 C 18.128906 12.128906 17.371094 12.855469 17.34375 12.855469 C 17.3125 12.855469 17.285156 12.800781 17.285156 12.714844 Z M 17.285156 12.714844 "/>
<path style=" stroke:none;fill-rule:nonzero;fill:rgb(76.470588%,71.764706%,67.843137%);fill-opacity:1;" d="M 28.785156 9.855469 C 28.3125 9.628906 27.527344 9.34375 27.042969 9.199219 C 26 8.914062 25.8125 8.570312 26.714844 8.570312 C 27.1875 8.570312 27.285156 8.613281 27.285156 8.855469 C 27.285156 9.15625 27.398438 9.1875 28.328125 9.144531 C 28.628906 9.128906 28.855469 9.1875 28.855469 9.269531 C 28.855469 9.355469 29.015625 9.429688 29.199219 9.429688 C 29.457031 9.429688 29.570312 9.515625 29.601562 9.757812 C 29.628906 9.941406 29.730469 10.058594 29.855469 10.027344 C 29.972656 10 30.300781 9.941406 30.570312 9.914062 C 31.027344 9.855469 31.015625 9.871094 30.429688 10.070312 C 29.65625 10.328125 29.828125 10.34375 28.785156 9.855469 Z M 28.785156 9.855469 "/>
<path style=" stroke:none;fill-rule:nonzero;fill:rgb(76.470588%,71.764706%,67.843137%);fill-opacity:1;" d="M 31.144531 9.601562 C 31.144531 9.371094 31.269531 9.3125 32.015625 9.230469 C 32.5 9.1875 33.3125 9.144531 33.800781 9.144531 C 34.613281 9.144531 34.714844 9.171875 34.714844 9.414062 C 34.714844 9.65625 34.613281 9.699219 33.828125 9.6875 C 33.328125 9.6875 32.527344 9.730469 32.042969 9.785156 C 31.214844 9.871094 31.144531 9.871094 31.144531 9.601562 Z M 31.144531 9.601562 "/>
<path style=" stroke:none;fill-rule:nonzero;fill:rgb(99.215686%,81.176471%,78.823529%);fill-opacity:1;" d="M 30.355469 36.628906 C 28.472656 36.371094 25.171875 35.644531 24.230469 35.269531 C 23.441406 34.972656 22.515625 34.730469 19.285156 33.929688 C 15.941406 33.101562 15.070312 32.785156 14.601562 32.171875 C 14.101562 31.542969 13.585938 30.414062 13.484375 29.714844 C 13.441406 29.441406 13.371094 29.171875 13.34375 29.113281 C 13.214844 28.914062 13.601562 27.785156 13.929688 27.355469 C 14.101562 27.113281 14.601562 26.730469 15.015625 26.5 C 15.6875 26.144531 15.941406 26.085938 16.929688 26.070312 C 17.984375 26.070312 18.398438 26.171875 19.300781 26.671875 C 19.355469 26.699219 19.429688 26.484375 19.484375 26.1875 C 19.730469 24.65625 21.113281 22.886719 22.542969 22.242188 C 25.144531 21.070312 28.242188 21.613281 30.144531 23.558594 C 31.257812 24.699219 31.8125 25.855469 32.027344 27.472656 C 32.144531 28.414062 32.242188 28.757812 32.414062 28.8125 C 33.101562 29.027344 34.441406 29.800781 35.042969 30.300781 C 37.199219 32.144531 36.886719 35.328125 34.457031 36.371094 C 33.929688 36.601562 31.3125 36.757812 30.355469 36.628906 Z M 30.355469 36.628906 "/>
<path style=" stroke:none;fill-rule:nonzero;fill:rgb(99.215686%,81.176471%,78.823529%);fill-opacity:1;" d="M 36.914062 26.242188 C 36.515625 25.886719 36.5 25.84375 36.515625 24.613281 C 36.542969 22.828125 37.1875 21.257812 38.15625 20.527344 C 38.527344 20.257812 38.542969 20.257812 39.171875 20.542969 C 39.527344 20.699219 39.972656 21.042969 40.15625 21.300781 C 40.441406 21.714844 40.5 21.941406 40.5 22.886719 C 40.484375 23.800781 40.414062 24.101562 40.058594 24.800781 C 39.570312 25.757812 38.800781 26.371094 37.914062 26.515625 C 37.429688 26.585938 37.269531 26.542969 36.914062 26.242188 Z M 36.914062 26.242188 "/>
<path style=" stroke:none;fill-rule:nonzero;fill:rgb(99.215686%,81.176471%,78.823529%);fill-opacity:1;" d="M 14.769531 22.1875 C 14.269531 22.085938 13.957031 21.628906 13.898438 20.898438 C 13.6875 18.769531 15.15625 15.785156 16.257812 16.070312 C 16.800781 16.199219 17.371094 16.65625 17.730469 17.230469 C 18 17.671875 18.027344 17.871094 17.957031 18.742188 C 17.769531 20.898438 16.300781 22.5 14.769531 22.1875 Z M 14.769531 22.1875 "/>
<path style=" stroke:none;fill-rule:nonzero;fill:rgb(99.215686%,81.176471%,78.823529%);fill-opacity:1;" d="M 30.84375 19.871094 C 30.398438 19.414062 30.398438 19.398438 30.472656 18.3125 C 30.613281 16.542969 31.230469 14.972656 32.070312 14.3125 C 32.542969 13.941406 33.144531 14.085938 33.800781 14.730469 C 34.414062 15.328125 34.558594 15.785156 34.5 16.929688 C 34.414062 18.613281 33.3125 20.042969 31.972656 20.230469 C 31.355469 20.3125 31.269531 20.285156 30.84375 19.871094 Z M 30.84375 19.871094 "/>
<path style=" stroke:none;fill-rule:nonzero;fill:rgb(99.215686%,81.176471%,78.823529%);fill-opacity:1;" d="M 22.886719 18.257812 C 22.515625 17.84375 22.398438 17.101562 22.570312 16.027344 C 22.769531 14.800781 23.257812 13.644531 23.84375 12.972656 C 24.328125 12.429688 24.398438 12.386719 24.898438 12.484375 C 25.601562 12.613281 26.371094 13.386719 26.585938 14.171875 C 26.898438 15.386719 26.230469 17.285156 25.199219 18.085938 C 24.429688 18.671875 23.355469 18.742188 22.886719 18.257812 Z M 22.886719 18.257812 "/>
<path style=" stroke:none;fill-rule:nonzero;fill:rgb(97.647059%,93.72549%,90.196078%);fill-opacity:1;" d="M 38.886719 44.542969 C 40.398438 41.429688 41.671875 38.144531 42.84375 34.355469 C 43.285156 32.886719 44.128906 29.570312 44.214844 28.886719 C 44.242188 28.671875 44.398438 27.730469 44.570312 26.785156 C 44.972656 24.542969 45.015625 20.472656 44.65625 19.355469 C 44.15625 17.871094 43.730469 17.199219 42.800781 16.5 C 42.269531 16.101562 42.15625 16.070312 40.898438 16.070312 L 39.570312 16.070312 L 39.34375 15.371094 C 38.984375 14.328125 37.941406 12.3125 37.328125 11.5 C 35.929688 9.6875 33.742188 9.1875 30.769531 10 C 29.828125 10.257812 29.644531 10.269531 29.371094 10.101562 C 28.441406 9.484375 25.070312 8.570312 23.800781 8.570312 C 23.085938 8.570312 21.742188 8.941406 21.414062 9.230469 C 21.300781 9.34375 21.144531 9.429688 21.070312 9.429688 C 20.898438 9.429688 19.484375 10.671875 18.441406 11.757812 C 17.5 12.714844 17.5 12.730469 17.027344 12.558594 C 16.230469 12.285156 14.972656 12.5 13.828125 13.101562 C 12.371094 13.855469 11.828125 14.601562 10.613281 17.5 C 10.414062 17.972656 10.171875 18.558594 10.070312 18.785156 C 9.972656 19.027344 9.714844 19.671875 9.515625 20.214844 C 9.3125 20.769531 9.070312 21.414062 8.984375 21.644531 C 8.886719 21.886719 8.800781 22.144531 8.769531 22.214844 C 8.742188 22.300781 8.058594 24.3125 7.230469 26.714844 C 6.414062 29.113281 5.714844 31.171875 5.6875 31.285156 C 5.644531 31.398438 5.484375 31.886719 5.34375 32.355469 C 5.199219 32.828125 5.058594 33.257812 5.058594 33.328125 C 5.042969 33.386719 5.027344 33.441406 5 33.472656 C 4.984375 33.484375 4.957031 33.601562 4.929688 33.714844 C 4.898438 33.828125 4.65625 34.628906 4.386719 35.472656 L 3.898438 37.027344 L 3.3125 35.328125 C 2.769531 33.730469 2.371094 32.328125 1.714844 29.570312 C 1.558594 28.898438 1.34375 27.558594 1.257812 26.570312 L 1.101562 24.785156 L 1.613281 22.714844 C 2.914062 17.558594 3.929688 13.984375 4.285156 13.285156 C 5.171875 11.542969 9.242188 6.65625 10.414062 5.929688 C 12.1875 4.800781 14.730469 3.699219 18.285156 2.515625 C 22.414062 1.128906 23.15625 0.984375 24.644531 1.371094 C 25.386719 1.558594 26.3125 1.628906 28.285156 1.644531 C 31.058594 1.6875 32.128906 1.8125 33.429688 2.3125 C 34.269531 2.644531 35.929688 3.5 37.070312 4.214844 C 37.472656 4.457031 38.714844 5.171875 39.84375 5.800781 C 44 8.070312 45.414062 10.027344 47.898438 16.929688 L 48.769531 19.355469 L 48.800781 24 C 48.84375 29.414062 48.730469 31.230469 48.15625 33.457031 C 47.742188 35.101562 46.699219 37.714844 46.070312 38.730469 C 45.871094 39.027344 45.714844 39.34375 45.714844 39.414062 C 45.714844 40.058594 39.128906 45.714844 38.371094 45.714844 C 38.34375 45.714844 38.570312 45.1875 38.886719 44.542969 Z M 38.886719 44.542969 "/>
</g>
</svg>
